<?xml version="1.0" encoding="UTF-8"?>
<!DOCTYPE svg PUBLIC "-//W3C//DTD SVG 1.1//EN" "http://www.w3.org/Graphics/SVG/1.1/DTD/svg11.dtd">
<svg xmlns="http://www.w3.org/2000/svg" version="1.1" width="81px" height="81px" style="shape-rendering:geometricPrecision; text-rendering:geometricPrecision; image-rendering:optimizeQuality; fill-rule:evenodd; clip-rule:evenodd" xmlns:xlink="http://www.w3.org/1999/xlink">
<g><path style="opacity:0.83" fill="#080b07" d="M 44.5,-0.5 C 45.8333,-0.5 47.1667,-0.5 48.5,-0.5C 50.0165,1.18571 51.3498,3.01904 52.5,5C 51.8993,6.60503 50.8993,7.93836 49.5,9C 52.1667,9.33333 54.8333,9.66667 57.5,10C 58.756,10.4169 59.4226,11.2502 59.5,12.5C 54.6161,12.601 49.6161,12.7677 44.5,13C 43.9449,26.2967 37.9449,36.1301 26.5,42.5C 21.7101,44.3913 16.7101,45.3913 11.5,45.5C 11.335,48.8499 11.5017,52.1832 12,55.5C 13.8765,60.5669 15.7099,65.5669 17.5,70.5C 14.9944,69.1848 13.161,67.1848 12,64.5C 9.45773,58.4239 7.95773,52.0906 7.5,45.5C 6.26381,44.7542 4.93047,44.4208 3.5,44.5C -0.484119,21.1023 9.18255,7.76901 32.5,4.5C 38.3787,7.22522 42.3787,5.55855 44.5,-0.5 Z"/></g>
<g><path style="opacity:1" fill="#9c6630" d="M 46.5,2.5 C 47.4778,2.81103 48.1445,3.4777 48.5,4.5C 47.4106,7.59015 45.4106,9.59015 42.5,10.5C 42.7759,7.28143 44.1093,4.61476 46.5,2.5 Z"/></g>
<g><path style="opacity:1" fill="#52ab3d" d="M 13.5,35.5 C 11.7073,37.4261 10.7073,39.7594 10.5,42.5C 12.8333,42.5 15.1667,42.5 17.5,42.5C 15.0336,43.6341 12.367,43.8007 9.5,43C 7.93908,42.6824 6.77241,41.8491 6,40.5C 3.72729,25.8772 9.22729,15.3772 22.5,9C 27.4107,7.50763 32.4107,7.1743 37.5,8C 36.1218,9.71337 34.4552,11.0467 32.5,12C 28.9627,12.145 25.6294,12.9784 22.5,14.5C 24.4233,15.3078 26.4233,15.8078 28.5,16C 26.8333,17.6667 25.1667,19.3333 23.5,21C 20.905,21.2256 18.405,21.7256 16,22.5C 15.8333,22.8333 15.6667,23.1667 15.5,23.5C 16.7287,24.2811 18.062,24.7811 19.5,25C 16.4002,27.9186 14.4002,31.4186 13.5,35.5 Z"/></g>
<g><path style="opacity:1" fill="#6ccf58" d="M 17.5,42.5 C 15.1667,42.5 12.8333,42.5 10.5,42.5C 10.7073,39.7594 11.7073,37.4261 13.5,35.5C 16.5525,32.4238 19.3858,29.0905 22,25.5C 22.2189,26.938 22.7189,28.2713 23.5,29.5C 24.3142,27.2338 24.8142,24.9005 25,22.5C 26.6667,20.8333 28.3333,19.1667 30,17.5C 30.3336,19.8473 30.167,22.1806 29.5,24.5C 30.5,24.5 31.5,24.5 32.5,24.5C 31.4904,17.6715 33.9904,12.6715 40,9.5C 42.4804,27.4913 34.9804,38.4913 17.5,42.5 Z"/></g>
<g><path style="opacity:1" fill="#644a85" d="M 59.5,12.5 C 73.9511,25.6307 78.1178,41.6307 72,60.5C 65.3886,75.3886 54.2219,81.0553 38.5,77.5C 34.4247,77.6014 31.9247,75.6014 31,71.5C 27.3664,62.1653 25.8664,52.4986 26.5,42.5C 37.9449,36.1301 43.9449,26.2967 44.5,13C 49.6161,12.7677 54.6161,12.601 59.5,12.5 Z"/></g>
<g><path style="opacity:0.754" fill="#030205" d="M 59.5,12.5 C 64.9085,14.0543 69.0752,17.3876 72,22.5C 79.3333,37.5 79.3333,52.5 72,67.5C 68.2149,73.1246 63.3816,77.4579 57.5,80.5C 52.8333,80.5 48.1667,80.5 43.5,80.5C 42.8333,79.1667 42.1667,79.1667 41.5,80.5C 37.1667,80.5 32.8333,80.5 28.5,80.5C 25.7659,79.295 23.0993,77.795 20.5,76C 18.393,74.7365 17.393,72.9032 17.5,70.5C 18.552,70.3505 19.552,70.5172 20.5,71C 25.3791,76.9003 31.3791,79.0669 38.5,77.5C 54.2219,81.0553 65.3886,75.3886 72,60.5C 78.1178,41.6307 73.9511,25.6307 59.5,12.5 Z"/></g>
<g><path style="opacity:1" fill="#442f65" d="M 26.5,42.5 C 25.8664,52.4986 27.3664,62.1653 31,71.5C 31.9247,75.6014 34.4247,77.6014 38.5,77.5C 31.3791,79.0669 25.3791,76.9003 20.5,71C 19.552,70.5172 18.552,70.3505 17.5,70.5C 15.7099,65.5669 13.8765,60.5669 12,55.5C 11.5017,52.1832 11.335,48.8499 11.5,45.5C 16.7101,45.3913 21.7101,44.3913 26.5,42.5 Z"/></g>
</svg>
