<?xml version="1.0" encoding="UTF-8"?>
<!DOCTYPE svg PUBLIC "-//W3C//DTD SVG 1.1//EN" "http://www.w3.org/Graphics/SVG/1.1/DTD/svg11.dtd">
<svg xmlns="http://www.w3.org/2000/svg" version="1.1" width="204px" height="204px" style="shape-rendering:geometricPrecision; text-rendering:geometricPrecision; image-rendering:optimizeQuality; fill-rule:evenodd; clip-rule:evenodd" xmlns:xlink="http://www.w3.org/1999/xlink">
<g><path style="opacity:0.925" fill="#030402" d="M 116.5,-0.5 C 118.5,-0.5 120.5,-0.5 122.5,-0.5C 125.493,4.14873 128.493,8.8154 131.5,13.5C 129.058,17.1167 126.391,20.6167 123.5,24C 132.185,23.7125 140.519,25.2125 148.5,28.5C 149.429,29.6888 149.762,31.0222 149.5,32.5C 148.406,33.5817 147.073,34.2483 145.5,34.5C 133.8,30.5667 122.133,30.5667 110.5,34.5C 111.048,68.1014 96.7143,92.768 67.5,108.5C 54.95,113.276 41.95,115.61 28.5,115.5C 28.4249,135.339 33.5915,153.672 44,170.5C 44.0613,172.686 44.2279,174.686 44.5,176.5C 41.6755,176.919 39.5088,175.919 38,173.5C 27.2287,155.348 21.3954,135.681 20.5,114.5C 17.0081,113.839 13.8414,112.506 11,110.5C 1.17696,66.9823 16.3436,35.8156 56.5,17C 71.6974,11.7036 87.0307,11.2036 102.5,15.5C 106.713,9.71993 111.38,4.38659 116.5,-0.5 Z"/></g>
<g><path style="opacity:1" fill="#a46b33" d="M 117.5,7.5 C 120.26,8.42298 122.26,10.2563 123.5,13C 119.885,16.6189 117.051,20.7856 115,25.5C 113.266,27.4506 111.099,28.4506 108.5,28.5C 108.149,26.1305 107.982,23.7972 108,21.5C 110.435,16.2851 113.601,11.6185 117.5,7.5 Z"/></g>
<g><path style="opacity:1" fill="#55b23f" d="M 34.5,89.5 C 31.0022,95.4941 28.3356,101.827 26.5,108.5C 23.7835,108.322 21.1168,107.822 18.5,107C 9.25014,75.1254 18.2501,49.4587 45.5,30C 61.1861,19.8317 78.1861,16.8317 96.5,21C 91.5463,24.2853 86.8797,27.952 82.5,32C 74.1764,33.0821 65.8431,34.0821 57.5,35C 55.4732,36.3957 55.1398,38.0624 56.5,40C 61.8158,39.7368 67.1491,39.7368 72.5,40C 67.8333,44.6667 63.1667,49.3333 58.5,54C 52.842,54.7398 47.1753,55.4065 41.5,56C 40.5939,57.6995 40.2606,59.5328 40.5,61.5C 43.8984,61.1796 47.2317,61.513 50.5,62.5C 43.8438,69.9879 38.1772,78.1546 33.5,87C 33.7432,87.9021 34.0766,88.7354 34.5,89.5 Z"/></g>
<g><path style="opacity:1" fill="#6dd159" d="M 26.5,108.5 C 28.3356,101.827 31.0022,95.4941 34.5,89.5C 36.1439,89.7135 37.6439,89.3802 39,88.5C 43.8952,80.2703 49.5619,72.6036 56,65.5C 56.3333,68.5 56.6667,71.5 57,74.5C 58.6667,75.8333 60.3333,75.8333 62,74.5C 62.3333,68.8333 62.6667,63.1667 63,57.5C 67.6988,52.4664 72.6988,47.7998 78,43.5C 77.6667,49.1876 76.8334,54.8542 75.5,60.5C 76.0963,63.2464 77.7629,64.0798 80.5,63C 82.7003,54.2809 84.5337,45.4476 86,36.5C 91.3095,32.6912 96.4762,28.6912 101.5,24.5C 107.865,57.594 96.8649,83.094 68.5,101C 55.154,107.676 41.154,110.176 26.5,108.5 Z"/></g>
<g><path style="opacity:1" fill="#644a86" d="M 149.5,32.5 C 151.062,32.7329 152.395,33.3995 153.5,34.5C 153.343,35.8734 153.51,37.2068 154,38.5C 173.386,54.2494 184.72,74.5828 188,99.5C 191.069,126.803 185.069,151.803 170,174.5C 154.009,195.442 133.509,201.775 108.5,193.5C 104.264,194.976 99.9304,195.976 95.5,196.5C 92.3148,196.98 89.4815,196.314 87,194.5C 76.6361,178.397 70.6361,160.73 69,141.5C 68.0565,130.518 67.5565,119.518 67.5,108.5C 96.7143,92.768 111.048,68.1014 110.5,34.5C 122.133,30.5667 133.8,30.5667 145.5,34.5C 147.073,34.2483 148.406,33.5817 149.5,32.5 Z"/></g>
<g><path style="opacity:0.873" fill="#010102" d="M 139.5,203.5 C 131.833,203.5 124.167,203.5 116.5,203.5C 113.949,202.516 111.282,201.516 108.5,200.5C 105.718,201.516 103.051,202.516 100.5,203.5C 92.8333,203.5 85.1667,203.5 77.5,203.5C 65.6096,200.128 55.443,193.795 47,184.5C 46.5065,182.866 46.3398,181.199 46.5,179.5C 48.1992,179.34 49.8659,179.506 51.5,180C 63.5023,193.189 78.169,198.689 95.5,196.5C 99.9304,195.976 104.264,194.976 108.5,193.5C 133.509,201.775 154.009,195.442 170,174.5C 185.069,151.803 191.069,126.803 188,99.5C 184.72,74.5828 173.386,54.2494 154,38.5C 153.51,37.2068 153.343,35.8734 153.5,34.5C 155.881,33.1697 158.214,33.3364 160.5,35C 179.281,50.38 190.448,70.2134 194,94.5C 198.531,123.509 193.198,150.509 178,175.5C 168.161,189.149 155.328,198.483 139.5,203.5 Z"/></g>
<g><path style="opacity:1" fill="#452f67" d="M 67.5,108.5 C 67.5565,119.518 68.0565,130.518 69,141.5C 70.6361,160.73 76.6361,178.397 87,194.5C 89.4815,196.314 92.3148,196.98 95.5,196.5C 78.169,198.689 63.5023,193.189 51.5,180C 49.8659,179.506 48.1992,179.34 46.5,179.5C 45.0937,179.027 44.427,178.027 44.5,176.5C 44.2279,174.686 44.0613,172.686 44,170.5C 33.5915,153.672 28.4249,135.339 28.5,115.5C 41.95,115.61 54.95,113.276 67.5,108.5 Z"/></g>
</svg>
